# xmcd
#
# Track frame offsets:
#	150
#	16639
#	31215
#	45930
#	56835
#	72542
#	88320
#	103524
#	117770
#	130446
#
# Disc length: 1899 seconds
#
# Revision: 0
# Processed by: cddbd v1.5.2PL0 Copyright (c) Steve Scherf et al.
# Submitted via: dBpowerAMP V4.0
#
DISCID=8107690a
DTITLE=Danielle Myers - Cowgirl Cadillac
DYEAR=1900
DGENRE=Country
TTITLE0=Cowgirl Cadillac
TTITLE1=Spin My Heart
TTITLE2=Gotta Babysit Bobby
TTITLE3=Who I Am
TTITLE4=Don`t Need A Reason To Ride
TTITLE5=Warrior on the Wind
TTITLE6=Does A Rose Know
TTITLE7=Walking In Your Footsteps
TTITLE8=There`s A Bright Shining Road Ahead
TTITLE9=He Keeps on Blessing Me
EXTD=
EXTT0=
EXTT1=
EXTT2=
EXTT3=
EXTT4=
EXTT5=
EXTT6=
EXTT7=
EXTT8=
EXTT9=
PLAYORDER=
